<svg width="31" height="31" viewBox="0 0 31 31" fill="none" xmlns="http://www.w3.org/2000/svg">
<g clip-path="url(#clip0_18_4)">
<path d="M9.05503 24.7254L21.9422 11.8383L21.9422 23.0987C21.9422 23.9986 22.6805 24.737 23.5804 24.737C23.7941 24.7372 24.0058 24.6953 24.2032 24.6136C24.4007 24.5319 24.5801 24.4121 24.7312 24.261C24.8823 24.1099 25.0021 23.9305 25.0838 23.733C25.1655 23.5356 25.2074 23.3239 25.2072 23.1102V7.90411C25.2074 7.69042 25.1655 7.47879 25.0838 7.28132C25.0021 7.08386 24.8823 6.90444 24.7312 6.75334C24.5801 6.60224 24.4007 6.48242 24.2032 6.40074C24.0058 6.31907 23.7941 6.27714 23.5804 6.27736H8.37433C8.16071 6.27736 7.94917 6.31944 7.7518 6.40119C7.55444 6.48294 7.3751 6.60277 7.22405 6.75383C7.07299 6.90489 6.95316 7.08422 6.87141 7.28158C6.78966 7.47895 6.74758 7.69049 6.74758 7.90411C6.74758 8.11774 6.78966 8.32928 6.87141 8.52665C6.95316 8.72401 7.07299 8.90335 7.22405 9.05441C7.3751 9.20546 7.55444 9.32529 7.7518 9.40704C7.94917 9.48879 8.16071 9.53087 8.37434 9.53087L19.6347 9.53087L6.74758 22.418C6.11303 23.0525 6.11303 24.0909 6.74758 24.7254C7.38213 25.36 8.42048 25.36 9.05503 24.7254Z" fill="black"/>
</g>
<defs>
<clipPath id="clip0_18_4">
<rect width="31" height="31" fill="white"/>
</clipPath>
</defs>
</svg>
